<svg xmlns="http://www.w3.org/2000/svg" height="511pt" version="1.1" viewBox="1 -59 511.99997 511" width="511pt">
<g id="surface1">
<path d="M 206.019531 87.339844 C 183.757812 87.339844 165.695312 105.398438 165.695312 127.660156 C 165.695312 149.921875 183.757812 167.980469 206.019531 167.980469 C 228.28125 167.980469 246.339844 149.921875 246.339844 127.660156 C 246.339844 105.398438 228.277344 87.339844 206.019531 87.339844 Z M 206.019531 147.085938 C 195.308594 147.085938 186.699219 138.371094 186.699219 127.765625 C 186.699219 117.054688 195.414062 108.445312 206.019531 108.445312 C 216.625 108.445312 225.339844 117.160156 225.339844 127.765625 C 225.445312 138.371094 216.726562 147.085938 206.019531 147.085938 Z M 206.019531 147.085938 " style=" stroke:none;fill-rule:nonzero;fill-opacity:1;" />
<path d="M 407.414062 118.421875 L 407.414062 10.582031 C 407.414062 4.804688 403.214844 0.5 397.441406 0.5 L 10.605469 0.5 C 4.828125 0.5 0 4.804688 0 10.582031 L 0 316.039062 C 0 321.8125 4.828125 326.957031 10.605469 326.957031 L 253.058594 326.957031 C 277.632812 366.859375 321.941406 393.742188 372.34375 393.742188 C 449.523438 393.742188 512 330.84375 512 253.769531 C 512 188.984375 468.316406 134.171875 407.414062 118.421875 Z M 21 306.0625 L 21 21.5 L 386.414062 21.5 L 386.414062 114.535156 C 382.214844 114.007812 377.28125 113.800781 372.34375 113.800781 C 372.027344 113.800781 371.714844 113.800781 371.714844 113.800781 L 371.714844 47.226562 C 371.714844 41.453125 366.675781 37.25 360.792969 37.25 L 47.25 37.25 C 41.476562 37.25 36.75 41.453125 36.75 47.226562 L 36.75 279.496094 C 36.75 285.269531 41.476562 290.3125 47.25 290.3125 L 237.308594 290.3125 C 238.78125 295.5625 240.460938 300.8125 242.558594 306.0625 Z M 233.320312 269.3125 L 57.753906 269.3125 L 57.753906 228.882812 L 119.390625 174.492188 C 122.226562 171.972656 126.425781 171.867188 129.367188 174.28125 L 192.789062 225 C 203.5 233.609375 218.828125 233.398438 229.328125 224.472656 L 236.992188 217.964844 C 233.949219 229.410156 232.375 241.589844 232.375 253.875 C 232.480469 259.019531 232.792969 264.0625 233.320312 269.3125 Z M 259.148438 172.078125 L 216.097656 208.410156 C 213.261719 210.824219 209.0625 210.824219 206.121094 208.511719 L 142.59375 157.796875 C 131.675781 149.082031 116.03125 149.394531 105.527344 158.742188 L 57.75 200.847656 L 57.75 58.253906 L 350.714844 58.253906 L 350.714844 115.585938 C 312.914062 121.570312 280.464844 142.464844 259.148438 172.078125 Z M 372.34375 372.632812 C 306.824219 372.632812 253.480469 319.292969 253.480469 253.769531 C 253.480469 188.246094 306.824219 134.90625 372.34375 134.90625 C 437.867188 134.90625 491.210938 188.246094 491.210938 253.769531 C 491.3125 319.292969 437.972656 372.632812 372.34375 372.632812 Z M 372.34375 372.632812 " style=" stroke:none;fill-rule:nonzero;fill-opacity:1;" />
<path d="M 405.316406 220.902344 L 362.265625 263.957031 L 341.367188 242.851562 C 337.273438 238.753906 330.65625 238.648438 326.5625 242.746094 C 322.46875 246.839844 322.363281 253.457031 326.457031 257.550781 L 354.808594 286.109375 C 356.804688 288.105469 359.429688 289.15625 362.265625 289.15625 C 365.097656 289.15625 367.722656 288.105469 369.71875 286.109375 L 420.226562 235.605469 C 424.320312 231.507812 424.320312 224.894531 420.226562 220.796875 C 416.027344 216.808594 409.410156 216.808594 405.316406 220.902344 Z M 405.316406 220.902344 " style=" stroke:none;fill-rule:nonzero;fill-opacity:1;" />
</g>
</svg>