<svg xmlns="http://www.w3.org/2000/svg" height="511pt" version="1.1" viewBox="1 -59 511.99997 511" width="511pt">
<g id="surface1">
<path d="M 206.019531 87.339844 C 183.757812 87.339844 165.695312 105.398438 165.695312 127.660156 C 165.695312 149.921875 183.757812 167.980469 206.019531 167.980469 C 228.28125 167.980469 246.339844 149.921875 246.339844 127.660156 C 246.339844 105.398438 228.277344 87.339844 206.019531 87.339844 Z M 206.019531 147.085938 C 195.308594 147.085938 186.699219 138.371094 186.699219 127.765625 C 186.699219 117.054688 195.414062 108.445312 206.019531 108.445312 C 216.625 108.445312 225.339844 117.160156 225.339844 127.765625 C 225.445312 138.371094 216.726562 147.085938 206.019531 147.085938 Z M 206.019531 147.085938 " style=" stroke:none;fill-rule:nonzero;fill-opacity:1;" />
<path d="M 407.414062 118.421875 L 407.414062 10.582031 C 407.414062 4.804688 403.214844 0.5 397.441406 0.5 L 10.605469 0.5 C 4.828125 0.5 0 4.804688 0 10.582031 L 0 316.039062 C 0 321.8125 4.828125 326.957031 10.605469 326.957031 L 253.058594 326.957031 C 277.632812 366.859375 321.941406 393.742188 372.34375 393.742188 C 449.523438 393.742188 512 330.84375 512 253.769531 C 512 188.984375 468.316406 134.171875 407.414062 118.421875 Z M 21 306.0625 L 21 21.5 L 386.414062 21.5 L 386.414062 114.535156 C 382.214844 114.007812 377.28125 113.800781 372.34375 113.800781 C 372.027344 113.800781 371.714844 113.800781 371.714844 113.800781 L 371.714844 47.226562 C 371.714844 41.453125 366.675781 37.25 360.792969 37.25 L 47.25 37.25 C 41.476562 37.25 36.75 41.453125 36.75 47.226562 L 36.75 279.496094 C 36.75 285.269531 41.476562 290.3125 47.25 290.3125 L 237.308594 290.3125 C 238.78125 295.5625 240.460938 300.8125 242.558594 306.0625 Z M 233.320312 269.3125 L 57.753906 269.3125 L 57.753906 228.882812 L 119.390625 174.492188 C 122.226562 171.972656 126.425781 171.867188 129.367188 174.28125 L 192.789062 225 C 203.5 233.609375 218.828125 233.398438 229.328125 224.472656 L 236.992188 217.964844 C 233.949219 229.410156 232.375 241.589844 232.375 253.875 C 232.480469 259.019531 232.792969 264.0625 233.320312 269.3125 Z M 259.046875 172.078125 L 215.992188 208.410156 C 213.160156 210.824219 208.957031 210.824219 206.019531 208.511719 L 142.492188 157.796875 C 131.570312 149.082031 115.925781 149.394531 105.425781 158.742188 L 57.753906 200.847656 L 57.753906 58.253906 L 350.714844 58.253906 L 350.714844 115.585938 C 312.914062 121.570312 280.464844 142.464844 259.046875 172.078125 Z M 372.34375 372.632812 C 306.824219 372.632812 253.480469 319.292969 253.480469 253.769531 C 253.480469 188.246094 306.824219 134.90625 372.34375 134.90625 C 437.867188 134.90625 491.210938 188.246094 491.210938 253.769531 C 491.3125 319.292969 437.972656 372.632812 372.34375 372.632812 Z M 372.34375 372.632812 " style=" stroke:none;fill-rule:nonzero;fill-opacity:1;" />
<path d="M 411.089844 215.757812 C 406.996094 211.664062 400.378906 211.664062 396.285156 215.757812 L 373.394531 238.648438 L 350.398438 215.757812 C 346.304688 211.664062 339.6875 211.664062 335.59375 215.757812 C 331.5 219.855469 331.5 226.46875 335.59375 230.5625 L 358.484375 253.457031 L 335.59375 276.347656 C 331.5 280.441406 331.5 287.054688 335.59375 291.152344 C 337.695312 293.25 340.320312 294.195312 343.050781 294.195312 C 345.78125 294.195312 348.40625 293.144531 350.503906 291.152344 L 373.394531 268.261719 L 396.285156 291.152344 C 398.386719 293.25 401.011719 294.195312 403.742188 294.195312 C 406.472656 294.195312 409.097656 293.144531 411.195312 291.152344 C 415.292969 287.054688 415.292969 280.441406 411.195312 276.347656 L 388.09375 253.558594 L 410.984375 230.667969 C 415.1875 226.574219 415.1875 219.855469 411.089844 215.757812 Z M 411.089844 215.757812 " style=" stroke:none;fill-rule:nonzero;fill-opacity:1;" />
</g>
</svg>